<svg viewBox="0 0 16 16" fill="none" xmlns="http://www.w3.org/2000/svg">
  <path
    d="M2.7887 13.5274C2.7887 13.5274 5.1912 16.0549 9.31245 15.4137C13.4337 14.7737 15.0862 11.1599 15.4262 9.09993C15.8587 6.47618 14.6599 4.67243 14.5962 4.57368C14.5487 4.50118 2.7887 13.5274 2.7887 13.5274Z"
    fill="#DC5819" />
  <path
    d="M2.60128 2.68893C0.132528 5.28768 -0.286222 9.08393 1.57003 12.0177C2.43378 13.3827 2.96253 13.6602 2.96253 13.6602C2.96253 13.6602 7.00128 16.2502 11.54 12.3239C15.4275 8.96143 14.6038 4.58268 14.6038 4.58268C14.6038 4.58268 14.1188 3.52268 13.0988 2.51643C10.835 0.281434 5.77503 -0.653566 2.60128 2.68893Z"
    fill="#EF6C32" />
  <path
    d="M12.4963 2.005C12.46 2.0075 8.84879 2.2675 5.02879 7.4025C2.61629 10.645 2.73504 12.9337 2.82879 13.5612C2.82879 13.5612 2.64504 13.41 2.51504 13.27C2.38504 13.1313 2.28379 13.0075 2.28379 13.0075C2.27379 11.9087 2.60254 9.82625 4.62879 7.10375C7.71254 2.955 10.6613 1.87375 11.8975 1.59375C11.8975 1.59375 12.0488 1.6825 12.195 1.77375C12.3025 1.84125 12.4963 2.005 12.4963 2.005Z"
    fill="#2D3130" />
  <path
    d="M1.94629 3.47266C2.34754 4.13141 3.31629 5.55516 4.99379 7.04141C7.10504 8.91391 9.30004 10.4364 11.515 11.5652C12.5613 12.0989 13.365 12.4114 13.9338 12.5952C13.9338 12.5952 13.8513 12.7214 13.7738 12.8252C13.6963 12.9289 13.6113 13.0164 13.6113 13.0164C13.0325 12.8202 12.26 12.5077 11.2863 12.0102C9.03379 10.8614 6.80379 9.31516 4.66129 7.41516C3.07379 6.00766 2.11129 4.67516 1.63879 3.92891C1.63879 3.92891 1.70504 3.79766 1.79254 3.68141C1.88004 3.56516 1.94629 3.47266 1.94629 3.47266Z"
    fill="#2D3130" />
  <path
    d="M6.64752 0.596191C6.46877 0.799941 6.21377 1.13119 5.91627 1.63244C5.64377 2.08994 5.50377 2.54494 5.34127 3.07244C5.07502 3.93744 4.77377 4.91744 3.78752 6.16994C2.41752 7.90994 1.07127 8.49119 0.443765 8.67744C0.443765 8.67744 0.426265 8.51494 0.420015 8.40119C0.413765 8.28744 0.416265 8.15869 0.416265 8.15869C1.01252 7.95494 2.19252 7.38494 3.39377 5.86119C4.32252 4.68119 4.60877 3.74869 4.86252 2.92619C5.02752 2.39119 5.18252 1.88619 5.48627 1.37744C5.63002 1.13619 5.76502 0.929941 5.88877 0.757441C5.88877 0.757441 6.02752 0.711191 6.21752 0.668691C6.36502 0.633691 6.64752 0.596191 6.64752 0.596191ZM8.59002 15.5012C8.17127 15.1224 7.30627 14.2574 6.67502 13.0537C5.97627 11.7224 5.64877 9.71994 6.58127 8.46869C7.64627 7.04119 9.63502 6.84744 11.4425 6.84744H11.45C13.7513 6.84869 15.4825 7.32994 15.5025 7.33619C15.5025 7.33619 15.4888 7.16744 15.47 7.02369C15.4538 6.89994 15.4363 6.78494 15.4363 6.78494C15.3488 6.76244 13.8188 6.34869 11.45 6.34744H11.4425C9.51127 6.34744 7.37627 6.56494 6.18002 8.16994C5.41002 9.20244 5.12752 11.1849 6.23252 13.2862C6.75252 14.2762 7.40752 15.0399 7.88627 15.5212C7.88627 15.5212 8.02627 15.5262 8.20502 15.5237C8.38127 15.5212 8.59002 15.5012 8.59002 15.5012Z"
    fill="#2D3130" />
</svg>
