<svg viewBox="0 0 24 24" fill="none" xmlns="http://www.w3.org/2000/svg">
  <path fill-rule="evenodd" clip-rule="evenodd"
    d="M9.50003 2C8.83699 2 8.20111 2.26339 7.73226 2.73223C7.26342 3.20107 7.00003 3.83696 7.00003 4.5V10.462C6.73271 10.2355 6.44089 10.0396 6.13003 9.878C5.11003 9.36 4.12003 9.44 3.07703 9.866C2.23703 10.211 1.97003 11.174 2.33003 11.894L5.17203 17.578C5.83639 18.9066 6.85752 20.0239 8.12105 20.805C9.38458 21.586 10.8406 21.9998 12.326 22H13C17.094 22 21 18.563 21 14.333V12.5C21.0002 12.095 20.902 11.6961 20.7138 11.3375C20.5257 10.9789 20.2533 10.6714 19.92 10.4414C19.5867 10.2113 19.2025 10.0658 18.8004 10.0171C18.3984 9.96843 17.9906 10.0182 17.612 10.162C17.3038 9.67511 16.8369 9.30963 16.2902 9.12741C15.7436 8.94519 15.1507 8.95741 14.612 9.162C14.3408 8.73365 13.9457 8.39789 13.4792 8.19929C13.0127 8.00069 12.4968 7.94862 12 8.05V4.5C12 4.1717 11.9354 3.84661 11.8097 3.54329C11.6841 3.23998 11.4999 2.96438 11.2678 2.73223C11.0357 2.50009 10.7601 2.31594 10.4567 2.1903C10.1534 2.06466 9.82834 2 9.50003 2Z"
    fill="currentColor" />
</svg>
