<svg width="24" height="24" viewBox="0 0 24 24" fill="none" xmlns="http://www.w3.org/2000/svg">
  <path
    d="M21.25 13V8.5C21.25 7.17392 20.7232 5.90215 19.7855 4.96447C18.8479 4.02678 17.5761 3.5 16.25 3.5H7.75C6.42392 3.5 5.15215 4.02678 4.21447 4.96447C3.27678 5.90215 2.75 7.17392 2.75 8.5V15.5C2.75 16.1566 2.87933 16.8068 3.1306 17.4134C3.38188 18.02 3.75017 18.5712 4.21447 19.0355C5.15215 19.9732 6.42392 20.5 7.75 20.5H14.01"
    stroke="currentColor" stroke-width="1.5" stroke-linecap="round" stroke-linejoin="round" />
  <path
    d="M3.01001 17.0001L5.75001 13.8001C6.10985 13.4427 6.58212 13.2206 7.08689 13.1714C7.59166 13.1222 8.09793 13.249 8.52001 13.5301C8.94209 13.8113 9.44836 13.938 9.95313 13.8888C10.4579 13.8396 10.9302 13.6175 11.29 13.2601L13.62 10.9301C14.2895 10.2584 15.1759 9.84633 16.121 9.76757C17.0662 9.68881 18.0086 9.94844 18.78 10.5001L21.25 12.4101M8.01001 10.1701C8.228 10.1688 8.4436 10.1246 8.6445 10.0399C8.8454 9.9553 9.02766 9.83193 9.18088 9.67685C9.33409 9.52178 9.45527 9.33805 9.53748 9.13614C9.61969 8.93424 9.66132 8.71812 9.66001 8.50013C9.6587 8.28213 9.61446 8.06653 9.52982 7.86563C9.44519 7.66474 9.32181 7.48248 9.16674 7.32926C9.01166 7.17604 8.82793 7.05487 8.62603 6.97266C8.42412 6.89045 8.208 6.84881 7.99001 6.85013C7.54975 6.85278 7.12858 7.03022 6.81914 7.3434C6.50971 7.65659 6.33736 8.07987 6.34001 8.52013C6.34266 8.96039 6.5201 9.38156 6.83328 9.691C7.14647 10.0004 7.56975 10.1728 8.01001 10.1701Z"
    stroke="currentColor" stroke-width="1.5" stroke-linecap="round" stroke-linejoin="round" />
  <path d="M18.707 20V15" stroke="currentColor" stroke-width="1.5" stroke-miterlimit="10" stroke-linecap="round" />
  <path
    d="M16.4139 17.895L18.3809 19.862C18.4237 19.905 18.4745 19.939 18.5304 19.9623C18.5864 19.9855 18.6464 19.9975 18.7069 19.9975C18.7675 19.9975 18.8275 19.9855 18.8835 19.9623C18.9394 19.939 18.9902 19.905 19.0329 19.862L20.9999 17.895"
    stroke="currentColor" stroke-width="1.5" stroke-linecap="round" stroke-linejoin="round" />
</svg>
